<?xml version="1.0" standalone="no"?>
<!DOCTYPE svg PUBLIC "-//W3C//DTD SVG 20010904//EN"
 "http://www.w3.org/TR/2001/REC-SVG-20010904/DTD/svg10.dtd">
<svg version="1.0" xmlns="http://www.w3.org/2000/svg"
 width="512.000000pt" height="512.000000pt" viewBox="0 0 512.000000 512.000000"
 preserveAspectRatio="xMidYMid meet">
<metadata>
Created by potrace 1.16, written by Peter Selinger 2001-2019
</metadata>
<g transform="translate(0.000000,512.000000) scale(0.100000,-0.100000)"
fill="#000000" stroke="none">
<path d="M2499 5040 c-94 -16 -177 -76 -224 -161 -34 -63 -46 -180 -25 -254
25 -88 126 -194 201 -210 l29 -7 0 -84 0 -84 -462 0 -462 0 -201 -200 -201
-200 -517 0 c-504 0 -518 -1 -537 -20 -27 -27 -27 -93 0 -120 19 -19 33 -20
426 -20 l407 0 -6 -29 c-10 -49 -508 -2255 -513 -2273 -5 -16 -21 -18 -150
-18 -211 0 -211 -1 -142 -277 26 -103 48 -173 60 -185 17 -17 57 -18 858 -18
801 0 841 1 858 18 21 21 102 329 102 387 0 22 -8 43 -20 55 -18 18 -33 20
-164 20 -129 0 -145 2 -150 18 -5 18 -503 2224 -513 2273 -5 29 -5 29 43 29
l48 0 201 200 201 200 417 0 417 0 0 -1760 0 -1760 -454 0 c-250 0 -462 -3
-471 -6 -9 -4 -56 -87 -106 -185 -95 -192 -106 -232 -69 -269 20 -20 33 -20
1180 -20 1147 0 1160 0 1180 20 20 20 24 37 20 75 -4 33 -178 372 -195 379 -9
3 -221 6 -471 6 l-454 0 0 1760 0 1760 417 0 417 0 201 -200 201 -200 48 0
c48 0 48 0 43 -29 -10 -49 -508 -2255 -513 -2273 -5 -16 -21 -18 -150 -18
-211 0 -211 -1 -142 -277 26 -103 48 -173 60 -185 17 -17 57 -18 858 -18 801
0 841 1 858 18 21 21 102 329 102 387 0 22 -8 43 -20 55 -18 18 -33 20 -164
20 -129 0 -145 2 -150 18 -5 18 -503 2224 -513 2273 l-5 29 406 0 c393 0 407
1 426 20 27 27 27 93 0 120 -19 19 -33 20 -537 20 l-517 0 -201 200 -201 200
-462 0 -462 0 0 84 0 84 29 7 c75 16 176 122 201 210 21 74 9 191 -25 254 -65
119 -206 185 -346 161z m139 -190 c130 -79 74 -280 -78 -280 -85 0 -150 65
-150 150 0 54 27 102 72 130 20 12 51 20 78 20 27 0 58 -8 78 -20z m-1374
-2472 c121 -535 222 -983 224 -995 l4 -23 -452 0 -452 0 4 23 c20 105 444
1967 448 1967 3 0 104 -438 224 -972z m3040 0 c121 -535 222 -983 224 -995 l4
-23 -451 0 c-248 0 -451 3 -451 8 -1 17 445 1982 450 1982 3 0 104 -438 224
-972z m-2494 -1185 c0 -5 -9 -39 -18 -78 l-18 -70 -734 0 -734 0 -18 70 c-9
39 -18 73 -18 78 0 4 346 7 770 7 424 0 770 -3 770 -7z m3040 0 c0 -5 -9 -39
-18 -78 l-18 -70 -734 0 -734 0 -18 70 c-9 39 -18 73 -18 78 0 4 347 7 770 7
424 0 770 -3 770 -7z m-1340 -873 l40 -80 -990 0 -990 0 40 80 40 80 910 0
910 0 40 -80z"/>
</g>
</svg>
