<?xml version="1.0" standalone="no"?>
<!DOCTYPE svg PUBLIC "-//W3C//DTD SVG 20010904//EN"
 "http://www.w3.org/TR/2001/REC-SVG-20010904/DTD/svg10.dtd">
<svg version="1.0" xmlns="http://www.w3.org/2000/svg"
 width="512.000000pt" height="512.000000pt" viewBox="0 0 512.000000 512.000000"
 preserveAspectRatio="xMidYMid meet">
<metadata>
Created by potrace 1.16, written by Peter Selinger 2001-2019
</metadata>
<g transform="translate(0.000000,512.000000) scale(0.100000,-0.100000)"
fill="#000000" stroke="none">
<path d="M1450 4995 l0 -125 -305 0 c-346 0 -356 -2 -375 -68 -8 -26 -10 -726
-8 -2394 l3 -2356 24 -26 24 -26 1747 0 1747 0 24 26 24 26 3 2356 c2 1668 0
2368 -8 2394 -19 66 -29 68 -375 68 l-305 0 0 125 0 125 -90 0 -90 0 0 -125 0
-125 -250 0 -250 0 0 125 0 125 -90 0 -90 0 0 -125 0 -125 -250 0 -250 0 0
125 0 125 -90 0 -90 0 0 -125 0 -125 -250 0 -250 0 0 125 0 125 -90 0 -90 0 0
-125z m0 -350 c0 -39 -4 -46 -29 -59 -92 -48 -141 -130 -141 -236 1 -141 92
-242 233 -257 105 -11 199 40 252 137 24 45 29 67 29 120 -1 36 -8 81 -16 101
-21 48 -81 114 -118 129 -28 11 -30 16 -30 61 l0 49 250 0 250 0 0 -49 c0 -43
-3 -50 -24 -55 -13 -3 -44 -25 -68 -49 -129 -125 -92 -343 70 -423 55 -27 174
-26 228 3 125 66 178 228 115 350 -24 48 -73 97 -112 113 -26 11 -29 17 -29
61 l0 49 250 0 250 0 0 -49 c0 -45 -3 -50 -27 -59 -36 -12 -89 -66 -116 -117
-17 -31 -22 -58 -22 -115 0 -83 15 -121 69 -178 53 -57 101 -77 186 -77 64 0
83 4 127 29 56 31 103 88 123 150 16 49 8 151 -14 194 -22 43 -92 111 -122
118 -21 5 -24 12 -24 55 l0 49 250 0 250 0 0 -49 c0 -45 -2 -50 -30 -61 -37
-15 -97 -81 -118 -129 -24 -55 -20 -156 8 -214 40 -85 140 -147 235 -147 95 0
188 59 231 145 23 48 26 64 22 128 -4 94 -39 156 -116 207 -49 32 -52 36 -52
77 l0 43 255 0 255 0 0 -2255 0 -2255 -1620 0 -1620 0 0 2255 0 2255 255 0
255 0 0 -45z m123 -217 c33 -17 46 -39 47 -75 0 -77 -91 -113 -145 -58 -35 34
-33 78 4 116 31 31 59 36 94 17z m686 -3 c69 -35 51 -145 -24 -156 -90 -13
-139 95 -68 151 31 24 54 25 92 5z m694 -5 c71 -56 22 -164 -68 -151 -49 7
-80 63 -64 111 20 55 87 76 132 40z m688 -9 c37 -38 39 -82 4 -116 -54 -55
-145 -19 -145 58 1 79 85 113 141 58z"/>
<path d="M1280 3500 l0 -90 1280 0 1280 0 0 90 0 90 -1280 0 -1280 0 0 -90z"/>
<path d="M1280 2820 l0 -90 1280 0 1280 0 0 90 0 90 -1280 0 -1280 0 0 -90z"/>
<path d="M1280 2130 l0 -90 1280 0 1280 0 0 90 0 90 -1280 0 -1280 0 0 -90z"/>
<path d="M1280 1450 l0 -90 1280 0 1280 0 0 90 0 90 -1280 0 -1280 0 0 -90z"/>
<path d="M1280 770 l0 -90 1280 0 1280 0 0 90 0 90 -1280 0 -1280 0 0 -90z"/>
</g>
</svg>
